<svg id="Calque_1" data-name="Calque 1" xmlns="http://www.w3.org/2000/svg" viewBox="0 0 388.91 282.35">
  <defs>
    <style>
      .cls-1 {
        fill: #39c;
      }

      .cls-2 {
        fill: #fff;
      }

      .cls-3, .cls-4 {
        fill: none;
      }

      .cls-4 {
        stroke: #39c;
      }

      .cls-4, .cls-5 {
        stroke-miterlimit: 10;
      }

      .cls-5 {
        fill: #3baddb;
        stroke: #fff;
        stroke-width: 3px;
      }
    </style>
  </defs>
  <title>mdocR</title>
  <path class="cls-1" d="M14.2,183.69l13.91-81.95H49.19L65.6,145.43l16.31-43.69H103l13.91,82H95.71l-7.07-47.17L69.3,183.69H60.82L42.45,136.52l-7.06,47.17Z" transform="translate(-5.21 -31.69)"/>
  <g>
    <g>
      <path class="cls-2" d="M189.79,114.47V160h-8.23v-3.81c-2.16,2.89-5.31,4.3-9.29,4.3-8.4,0-14.86-6.63-14.86-17s6.46-17,14.86-17a10.88,10.88,0,0,1,8.9,4v-16Zm-8.45,29.05c0-5.71-3.32-9.15-7.58-9.15s-7.62,3.44-7.62,9.15,3.31,9.15,7.62,9.15S181.34,149.23,181.34,143.52Z" transform="translate(-5.21 -31.69)"/>
      <path class="cls-2" d="M195.54,143.52c0-10,6.91-17,16.36-17s16.31,7.06,16.31,17-6.86,17-16.31,17S195.54,153.47,195.54,143.52Zm23.93,0c0-5.71-3.26-9.15-7.57-9.15s-7.62,3.44-7.62,9.15,3.31,9.15,7.62,9.15S219.47,149.23,219.47,143.52Z" transform="translate(-5.21 -31.69)"/>
      <path class="cls-2" d="M231.75,143.52c0-10,6.91-17,16.58-17,6.24,0,11.16,3,13.32,8.41l-6.69,4c-1.6-3.13-4-4.54-6.69-4.54-4.36,0-7.79,3.38-7.79,9.15s3.43,9.15,7.79,9.15c2.71,0,5.09-1.35,6.69-4.54l6.69,4.05c-2.16,5.28-7.08,8.35-13.32,8.35C238.66,160.53,231.75,153.47,231.75,143.52Z" transform="translate(-5.21 -31.69)"/>
    </g>
    <path class="cls-1" d="M173.41,134.93c-4.31,0-7.62,3.44-7.62,9.16s3.31,9.15,7.62,9.15,7.58-3.44,7.58-9.15S177.67,134.93,173.41,134.93Z" transform="translate(-5.21 -31.69)"/>
    <path class="cls-1" d="M211.55,134.93c-4.31,0-7.63,3.44-7.63,9.16s3.32,9.15,7.63,9.15,7.58-3.44,7.58-9.15S215.86,134.93,211.55,134.93Z" transform="translate(-5.21 -31.69)"/>
    <path class="cls-1" d="M263.65,106.62,74.49,31.69s100.73,83.52,31.94,184.25c0,0,160.91-73.7,181.79,0C288.22,215.94,323.84,157,263.65,106.62Zm-74.21,54h-8.23V156.8c-2.16,2.89-5.31,4.3-9.29,4.3-8.4,0-14.87-6.63-14.87-17s6.47-17,14.87-17a10.86,10.86,0,0,1,8.9,4V115h8.62Zm22.11.49c-9.45,0-16.36-7.06-16.36-17s6.91-17,16.36-17,16.31,7.07,16.31,17S221,161.1,211.55,161.1Zm36.37-7.86c2.71,0,5.09-1.35,6.69-4.55l6.69,4.06c-2.16,5.28-7.08,8.35-13.32,8.35-9.67,0-16.58-7.06-16.58-17s6.91-17,16.58-17c6.24,0,11.16,3,13.32,8.42l-6.69,4c-1.6-3.13-4-4.55-6.69-4.55-4.36,0-7.79,3.38-7.79,9.16S243.56,153.24,247.92,153.24Z" transform="translate(-5.21 -31.69)"/>
  </g>
  <path class="cls-1" d="M375,188.4,305.22,194C281,315.39,58.67,257.93,35.08,235.25c-21.3-20.48-17-38.33-16.18-42.62l-6.54-4.24s-23.89,89,15.66,118.32A38.2,38.2,0,0,0,50.85,314H283a84.65,84.65,0,0,0,19.66-2.3C336.74,303.6,435.3,272,375,188.4Z" transform="translate(-5.21 -31.69)"/>
  <polygon class="cls-3" points="321.15 150.05 339.33 148.58 321.15 120.39 321.15 150.05"/>
  <path class="cls-3" d="M340.06,135.67a10,10,0,0,0,0-15q-3.37-2.61-9.67-2.61h-4v20.22h4Q336.69,138.28,340.06,135.67Z" transform="translate(-5.21 -31.69)"/>
  <path class="cls-1" d="M326.37,181.74V152.08l18.17,28.19,24.59-2L347.45,150q8.81-2.06,13.31-7.87T365.28,127a28.15,28.15,0,0,0-1.69-9.78,22.53,22.53,0,0,0-13.42-13.53,32.57,32.57,0,0,0-12-2H305.06V183.6h.13l0-.15Zm0-63.68h4q6.3,0,9.67,2.61a10,10,0,0,1,0,15q-3.37,2.61-9.67,2.61h-4Z" transform="translate(-5.21 -31.69)"/>
  <path class="cls-4" d="M325.49,206.83" transform="translate(-5.21 -31.69)"/>
  <path class="cls-4" d="M275.5,322.54" transform="translate(-5.21 -31.69)"/>
  <path class="cls-4" d="M286.3,322.54" transform="translate(-5.21 -31.69)"/>
  <path class="cls-4" d="M347.71,206.83" transform="translate(-5.21 -31.69)"/>
  <circle class="cls-5" cx="82.25" cy="227.99" r="37.91"/>
  <path class="cls-2" d="M84.4,235.6h6.25v43.7H84.4Z" transform="translate(-5.21 -31.69)"/>
  <circle class="cls-5" cx="167.23" cy="227.99" r="37.91"/>
  <path class="cls-2" d="M172.69,235q6,0,9.94,6.31t3.92,16q0,9.95-3.92,16.17t-10.19,6.22q-6.34,0-10.19-6.1t-3.85-16.17q0-9.94,4-16.19T172.69,235Zm.07,5.95h-.32c-2.39,0-4.3,1.47-5.7,4.42s-2.12,6.95-2.12,12,.69,9.23,2.07,12.17S170,274,172.38,274s4.33-1.47,5.73-4.41,2.09-6.94,2.09-12-.67-9.11-2-12.11S175,241,172.76,241Z" transform="translate(-5.21 -31.69)"/>
  <circle class="cls-5" cx="253.52" cy="227.99" r="37.91"/>
  <path class="cls-2" d="M259,235q6,0,9.93,6.31t3.93,16q0,9.95-3.93,16.17t-10.18,6.22q-6.35,0-10.19-6.1t-3.85-16.17q0-9.94,4-16.19T259,235ZM259,241h-.31q-3.6,0-5.71,4.42t-2.11,12q0,7.75,2.07,12.17t5.69,4.41q3.63,0,5.72-4.41t2.1-12q0-7.6-2-12.11T259,241Z" transform="translate(-5.21 -31.69)"/>
</svg>
